<svg xmlns="http://www.w3.org/2000/svg" viewBox="0 0 484 360" role="img" aria-labelledby="title desc">
  <title id="title">Real Estate Beyond Limits lion and skyline mark</title>
  <desc id="desc">A gold lion integrated with a black, gold and silver real estate skyline.</desc>
  <defs>
    <linearGradient id="gold" x1="0" y1="0" x2="1" y2="1">
      <stop offset="0" stop-color="#a86f10"/>
      <stop offset="0.24" stop-color="#e2b544"/>
      <stop offset="0.43" stop-color="#fff0a2"/>
      <stop offset="0.61" stop-color="#c98c1d"/>
      <stop offset="0.82" stop-color="#f0cf65"/>
      <stop offset="1" stop-color="#a86b0c"/>
    </linearGradient>
    <linearGradient id="silver" x1="0" y1="0" x2="1" y2="0">
      <stop offset="0" stop-color="#c5c5c5"/>
      <stop offset="0.5" stop-color="#f0f0f0"/>
      <stop offset="1" stop-color="#b9b9b9"/>
    </linearGradient>
  </defs>
  <path d="M 138.00,303.00 L 127.00,305.00 L 127.00,329.00 L 132.00,329.00 L 133.00,328.00 L 139.00,327.00 L 139.00,304.00 Z M 346.00,299.00 L 345.00,300.00 L 345.00,327.00 L 351.00,328.00 L 352.00,329.00 L 358.00,329.00 L 358.00,300.00 L 357.00,299.00 Z M 304.00,299.00 L 301.00,299.00 L 301.00,319.00 L 302.00,319.00 L 301.00,318.00 L 301.00,300.00 L 302.00,299.00 Z M 205.00,269.00 L 207.00,270.00 L 207.00,314.00 L 206.00,315.00 L 204.00,315.00 L 206.00,315.00 L 207.00,314.00 L 207.00,270.00 Z M 195.00,265.00 L 194.00,265.00 L 192.00,267.00 L 192.00,317.00 L 192.00,267.00 L 193.00,266.00 L 195.00,267.00 L 195.00,316.00 Z M 328.00,264.00 L 317.00,275.00 L 317.00,293.00 L 316.00,294.00 L 317.00,295.00 L 317.00,297.00 L 315.00,298.00 L 314.00,296.00 L 313.00,296.00 L 314.00,297.00 L 314.00,320.00 L 313.00,321.00 L 309.00,321.00 L 314.00,321.00 L 316.00,320.00 L 317.00,322.00 L 335.00,325.00 L 335.00,268.00 L 332.00,265.00 Z M 315.00,312.00 L 317.00,313.00 L 317.00,318.00 L 316.00,319.00 L 314.00,318.00 L 314.00,313.00 Z M 315.00,302.00 L 317.00,303.00 L 317.00,308.00 L 316.00,309.00 L 314.00,308.00 L 314.00,303.00 Z M 216.00,249.00 L 215.00,251.00 L 217.00,253.00 L 216.00,252.00 L 217.00,250.00 Z M 212.00,244.00 L 212.00,247.00 L 211.00,248.00 L 213.00,250.00 L 214.00,248.00 L 212.00,246.00 Z M 208.00,241.00 L 207.00,242.00 L 208.00,243.00 L 207.00,245.00 L 209.00,247.00 L 208.00,246.00 L 209.00,244.00 L 209.00,242.00 Z M 204.00,238.00 L 202.00,241.00 L 200.00,240.00 L 200.00,315.00 L 198.00,316.00 L 200.00,316.00 L 200.00,242.00 L 202.00,241.00 L 205.00,244.00 L 204.00,243.00 L 205.00,241.00 L 204.00,240.00 Z M 199.00,234.00 L 198.00,235.00 L 201.00,238.00 L 199.00,236.00 Z M 189.00,228.00 L 196.00,234.00 L 194.00,232.00 L 194.00,230.00 L 192.00,231.00 Z M 180.00,221.00 L 183.00,224.00 L 180.00,221.00 L 178.00,221.00 L 178.00,295.00 L 177.00,296.00 L 173.00,296.00 L 172.00,295.00 L 167.00,295.00 L 166.00,296.00 L 166.00,322.00 L 172.00,321.00 L 173.00,320.00 L 176.00,320.00 L 177.00,319.00 L 180.00,320.00 L 178.00,319.00 L 178.00,222.00 Z M 256.00,193.00 L 254.00,191.00 L 253.00,192.00 L 253.00,194.00 L 254.00,192.00 Z M 247.00,183.00 L 246.00,185.00 L 246.00,194.00 L 246.00,185.00 L 248.00,184.00 Z " fill="url(#silver)" fill-rule="evenodd"/>
  <path d="M 308.00,299.00 L 302.00,300.00 L 302.00,318.00 L 303.00,319.00 L 307.00,319.00 L 308.00,320.00 L 312.00,320.00 L 313.00,321.00 L 313.00,297.00 Z M 204.00,269.00 L 204.00,314.00 L 206.00,314.00 L 206.00,270.00 Z M 179.00,222.00 L 179.00,319.00 L 182.00,319.00 L 183.00,318.00 L 191.00,317.00 L 191.00,267.00 L 194.00,264.00 L 196.00,265.00 L 196.00,316.00 L 199.00,315.00 L 199.00,241.00 L 200.00,240.00 L 202.00,240.00 L 206.00,244.00 L 207.00,244.00 L 217.00,252.00 L 217.00,251.00 L 210.00,245.00 L 209.00,245.00 L 206.00,242.00 L 201.00,239.00 L 197.00,235.00 L 192.00,232.00 L 188.00,228.00 L 187.00,228.00 L 184.00,225.00 Z " fill="#1b1b1b" fill-rule="evenodd"/>
  <path d="M 3.00,359.00 L 16.00,358.00 L 17.00,357.00 L 25.00,357.00 L 26.00,356.00 L 34.00,356.00 L 35.00,355.00 L 43.00,355.00 L 44.00,354.00 L 52.00,354.00 L 53.00,353.00 L 60.00,353.00 L 61.00,352.00 L 68.00,352.00 L 69.00,351.00 L 77.00,351.00 L 78.00,350.00 L 86.00,350.00 L 87.00,349.00 L 95.00,349.00 L 96.00,348.00 L 104.00,348.00 L 105.00,347.00 L 112.00,347.00 L 113.00,346.00 L 121.00,346.00 L 122.00,345.00 L 129.00,345.00 L 130.00,344.00 L 147.00,343.00 L 148.00,342.00 L 164.00,341.00 L 165.00,340.00 L 172.00,340.00 L 173.00,339.00 L 190.00,338.00 L 191.00,337.00 L 198.00,337.00 L 199.00,336.00 L 206.00,336.00 L 207.00,335.00 L 224.00,334.00 L 225.00,333.00 L 232.00,333.00 L 233.00,332.00 L 239.00,332.00 L 240.00,331.00 L 245.00,331.00 L 246.00,332.00 L 251.00,332.00 L 252.00,333.00 L 259.00,333.00 L 260.00,334.00 L 267.00,334.00 L 268.00,335.00 L 284.00,336.00 L 285.00,337.00 L 293.00,337.00 L 294.00,338.00 L 311.00,339.00 L 312.00,340.00 L 319.00,340.00 L 320.00,341.00 L 328.00,341.00 L 329.00,342.00 L 336.00,342.00 L 337.00,343.00 L 345.00,343.00 L 346.00,344.00 L 353.00,344.00 L 354.00,345.00 L 361.00,345.00 L 362.00,346.00 L 370.00,346.00 L 371.00,347.00 L 379.00,347.00 L 380.00,348.00 L 388.00,348.00 L 389.00,349.00 L 397.00,349.00 L 398.00,350.00 L 406.00,350.00 L 407.00,351.00 L 414.00,351.00 L 415.00,352.00 L 423.00,352.00 L 424.00,353.00 L 431.00,353.00 L 432.00,354.00 L 441.00,354.00 L 442.00,355.00 L 449.00,355.00 L 450.00,356.00 L 458.00,356.00 L 459.00,357.00 L 467.00,357.00 L 468.00,358.00 L 482.00,359.00 L 474.00,358.00 L 473.00,357.00 L 468.00,357.00 L 467.00,356.00 L 463.00,356.00 L 462.00,355.00 L 458.00,355.00 L 457.00,354.00 L 453.00,354.00 L 452.00,353.00 L 447.00,353.00 L 446.00,352.00 L 442.00,352.00 L 441.00,351.00 L 437.00,351.00 L 436.00,350.00 L 432.00,350.00 L 431.00,349.00 L 426.00,349.00 L 425.00,348.00 L 421.00,348.00 L 420.00,347.00 L 416.00,347.00 L 415.00,346.00 L 411.00,346.00 L 410.00,345.00 L 405.00,345.00 L 404.00,344.00 L 400.00,344.00 L 399.00,343.00 L 394.00,343.00 L 393.00,342.00 L 389.00,342.00 L 388.00,341.00 L 384.00,341.00 L 383.00,340.00 L 379.00,340.00 L 378.00,339.00 L 373.00,339.00 L 372.00,338.00 L 368.00,338.00 L 367.00,337.00 L 363.00,337.00 L 362.00,336.00 L 357.00,336.00 L 356.00,335.00 L 352.00,335.00 L 351.00,334.00 L 346.00,334.00 L 345.00,333.00 L 341.00,333.00 L 340.00,332.00 L 336.00,332.00 L 335.00,331.00 L 330.00,331.00 L 329.00,330.00 L 326.00,330.00 L 325.00,329.00 L 320.00,329.00 L 319.00,328.00 L 315.00,328.00 L 314.00,327.00 L 310.00,327.00 L 309.00,326.00 L 304.00,326.00 L 303.00,325.00 L 299.00,325.00 L 298.00,324.00 L 294.00,324.00 L 293.00,323.00 L 289.00,323.00 L 288.00,322.00 L 284.00,322.00 L 283.00,321.00 L 278.00,321.00 L 277.00,320.00 L 273.00,320.00 L 272.00,319.00 L 268.00,319.00 L 267.00,318.00 L 263.00,318.00 L 262.00,317.00 L 257.00,317.00 L 256.00,316.00 L 252.00,316.00 L 251.00,315.00 L 246.00,315.00 L 245.00,314.00 L 239.00,314.00 L 238.00,315.00 L 233.00,315.00 L 232.00,316.00 L 228.00,316.00 L 227.00,317.00 L 216.00,318.00 L 215.00,319.00 L 207.00,320.00 L 206.00,321.00 L 201.00,321.00 L 200.00,322.00 L 196.00,322.00 L 195.00,323.00 L 191.00,323.00 L 190.00,324.00 L 185.00,324.00 L 184.00,325.00 L 180.00,325.00 L 179.00,326.00 L 175.00,326.00 L 174.00,327.00 L 170.00,327.00 L 169.00,328.00 L 165.00,328.00 L 164.00,329.00 L 159.00,329.00 L 158.00,330.00 L 154.00,330.00 L 153.00,331.00 L 149.00,331.00 L 148.00,332.00 L 143.00,332.00 L 142.00,333.00 L 138.00,333.00 L 137.00,334.00 L 133.00,334.00 L 132.00,335.00 L 127.00,335.00 L 126.00,336.00 L 122.00,336.00 L 121.00,337.00 L 116.00,337.00 L 115.00,338.00 L 111.00,338.00 L 110.00,339.00 L 106.00,339.00 L 105.00,340.00 L 101.00,340.00 L 100.00,341.00 L 96.00,341.00 L 95.00,342.00 L 91.00,342.00 L 90.00,343.00 L 85.00,343.00 L 84.00,344.00 L 80.00,344.00 L 79.00,345.00 L 75.00,345.00 L 74.00,346.00 L 70.00,346.00 L 69.00,347.00 L 64.00,347.00 L 63.00,348.00 L 59.00,348.00 L 58.00,349.00 L 53.00,349.00 L 52.00,350.00 L 48.00,350.00 L 47.00,351.00 L 43.00,351.00 L 42.00,352.00 L 38.00,352.00 L 37.00,353.00 L 33.00,353.00 L 32.00,354.00 L 28.00,354.00 L 27.00,355.00 L 23.00,355.00 L 22.00,356.00 L 17.00,356.00 L 16.00,357.00 L 12.00,357.00 L 11.00,358.00 L 6.00,358.00 L 5.00,359.00 Z M 158.00,282.00 L 142.00,282.00 L 142.00,327.00 L 144.00,326.00 L 148.00,326.00 L 149.00,325.00 L 153.00,325.00 L 154.00,324.00 L 157.00,324.00 L 158.00,323.00 Z M 272.00,210.00 L 272.00,213.00 L 271.00,214.00 L 271.00,218.00 L 272.00,219.00 L 272.00,221.00 L 271.00,222.00 L 271.00,230.00 L 276.00,235.00 L 276.00,236.00 L 279.00,235.00 L 283.00,231.00 L 285.00,231.00 L 289.00,236.00 L 289.00,237.00 L 301.00,251.00 L 301.00,281.00 L 300.00,282.00 L 298.00,281.00 L 298.00,279.00 L 297.00,278.00 L 297.00,276.00 L 298.00,275.00 L 297.00,274.00 L 298.00,272.00 L 298.00,262.00 L 297.00,261.00 L 297.00,253.00 L 296.00,253.00 L 296.00,317.00 L 297.00,318.00 L 298.00,317.00 L 298.00,315.00 L 297.00,314.00 L 297.00,307.00 L 298.00,306.00 L 297.00,304.00 L 297.00,300.00 L 298.00,299.00 L 298.00,292.00 L 302.00,288.00 L 308.00,274.00 L 308.00,271.00 L 309.00,270.00 L 309.00,265.00 L 310.00,264.00 L 309.00,253.00 L 308.00,252.00 L 307.00,246.00 L 299.00,233.00 L 286.00,220.00 L 285.00,220.00 L 281.00,216.00 L 280.00,216.00 Z M 260.00,199.00 L 260.00,311.00 L 263.00,311.00 L 264.00,312.00 L 269.00,312.00 L 270.00,313.00 L 274.00,313.00 L 275.00,314.00 L 279.00,314.00 L 280.00,315.00 L 284.00,315.00 L 284.00,237.00 L 266.00,250.00 L 264.00,249.00 L 264.00,204.00 Z M 254.00,192.00 L 254.00,310.00 L 256.00,310.00 L 256.00,194.00 Z M 246.00,184.00 L 247.00,185.00 L 247.00,194.00 L 246.00,195.00 L 246.00,307.00 L 247.00,308.00 L 250.00,308.00 L 250.00,300.00 L 249.00,299.00 L 250.00,297.00 L 249.00,296.00 L 249.00,294.00 L 250.00,293.00 L 250.00,280.00 L 249.00,279.00 L 249.00,276.00 L 250.00,275.00 L 250.00,257.00 L 249.00,256.00 L 249.00,249.00 L 250.00,248.00 L 250.00,239.00 L 249.00,238.00 L 249.00,228.00 L 250.00,227.00 L 250.00,223.00 L 249.00,222.00 L 249.00,195.00 L 250.00,194.00 L 250.00,192.00 L 249.00,191.00 L 249.00,189.00 L 250.00,188.00 L 249.00,186.00 L 247.00,184.00 Z M 241.00,138.00 L 240.00,165.00 L 239.00,166.00 L 239.00,179.00 L 236.00,182.00 L 235.00,182.00 L 233.00,180.00 L 229.00,172.00 L 227.00,164.00 L 227.00,174.00 L 228.00,175.00 L 228.00,180.00 L 229.00,181.00 L 230.00,187.00 L 226.00,190.00 L 226.00,218.00 L 218.00,225.00 L 218.00,268.00 L 213.00,272.00 L 212.00,272.00 L 212.00,313.00 L 214.00,312.00 L 219.00,312.00 L 220.00,311.00 L 230.00,310.00 L 231.00,309.00 L 235.00,309.00 L 236.00,308.00 L 240.00,308.00 L 242.00,307.00 L 242.00,141.00 L 241.00,140.00 Z M 360.00,133.00 L 362.00,138.00 L 365.00,141.00 L 369.00,142.00 L 370.00,143.00 L 373.00,143.00 L 376.00,146.00 L 378.00,154.00 L 383.00,149.00 L 383.00,148.00 L 387.00,144.00 L 390.00,139.00 L 389.00,136.00 L 387.00,136.00 L 383.00,134.00 L 373.00,134.00 L 372.00,135.00 L 367.00,136.00 L 361.00,131.00 Z M 269.00,106.00 L 262.00,115.00 L 259.00,121.00 L 259.00,123.00 L 256.00,130.00 L 256.00,135.00 L 255.00,136.00 L 255.00,146.00 L 256.00,147.00 L 256.00,152.00 L 257.00,153.00 L 257.00,156.00 L 263.00,170.00 L 265.00,172.00 L 269.00,179.00 L 272.00,182.00 L 272.00,183.00 L 303.00,214.00 L 303.00,215.00 L 307.00,219.00 L 307.00,220.00 L 313.00,228.00 L 319.00,242.00 L 319.00,247.00 L 320.00,248.00 L 320.00,259.00 L 319.00,260.00 L 319.00,264.00 L 320.00,264.00 L 327.00,258.00 L 327.00,256.00 L 330.00,250.00 L 330.00,247.00 L 331.00,246.00 L 331.00,236.00 L 330.00,235.00 L 330.00,232.00 L 325.00,222.00 L 309.00,206.00 L 308.00,206.00 L 299.00,197.00 L 298.00,197.00 L 297.00,195.00 L 291.00,189.00 L 285.00,178.00 L 282.00,165.00 L 283.00,164.00 L 285.00,165.00 L 288.00,172.00 L 293.00,178.00 L 293.00,179.00 L 304.00,189.00 L 330.00,202.00 L 332.00,204.00 L 336.00,206.00 L 344.00,214.00 L 347.00,220.00 L 348.00,225.00 L 349.00,225.00 L 354.00,220.00 L 355.00,220.00 L 355.00,219.00 L 362.00,212.00 L 362.00,211.00 L 366.00,206.00 L 368.00,202.00 L 369.00,197.00 L 370.00,196.00 L 370.00,188.00 L 367.00,197.00 L 365.00,198.00 L 363.00,196.00 L 363.00,198.00 L 360.00,204.00 L 358.00,206.00 L 356.00,205.00 L 357.00,203.00 L 357.00,195.00 L 356.00,195.00 L 356.00,197.00 L 355.00,198.00 L 353.00,205.00 L 351.00,206.00 L 349.00,204.00 L 346.00,198.00 L 339.00,192.00 L 338.00,192.00 L 338.00,195.00 L 337.00,196.00 L 336.00,196.00 L 333.00,193.00 L 333.00,192.00 L 331.00,190.00 L 331.00,185.00 L 337.00,179.00 L 339.00,178.00 L 347.00,177.00 L 348.00,176.00 L 350.00,176.00 L 357.00,173.00 L 361.00,173.00 L 362.00,172.00 L 366.00,172.00 L 368.00,173.00 L 370.00,176.00 L 370.00,178.00 L 375.00,172.00 L 375.00,167.00 L 374.00,166.00 L 374.00,163.00 L 372.00,165.00 L 368.00,167.00 L 366.00,167.00 L 363.00,169.00 L 359.00,169.00 L 358.00,170.00 L 347.00,170.00 L 346.00,169.00 L 342.00,169.00 L 341.00,168.00 L 339.00,168.00 L 335.00,166.00 L 333.00,164.00 L 333.00,163.00 L 334.00,162.00 L 337.00,162.00 L 338.00,161.00 L 343.00,161.00 L 341.00,161.00 L 340.00,160.00 L 329.00,159.00 L 327.00,158.00 L 325.00,155.00 L 325.00,153.00 L 328.00,151.00 L 338.00,151.00 L 334.00,151.00 L 333.00,150.00 L 329.00,150.00 L 328.00,149.00 L 326.00,149.00 L 324.00,147.00 L 323.00,144.00 L 316.00,139.00 L 314.00,139.00 L 313.00,138.00 L 309.00,138.00 L 308.00,137.00 L 305.00,137.00 L 304.00,136.00 L 301.00,136.00 L 298.00,134.00 L 296.00,134.00 L 294.00,132.00 L 291.00,131.00 L 284.00,124.00 L 281.00,119.00 L 282.00,127.00 L 287.00,137.00 L 296.00,145.00 L 299.00,146.00 L 301.00,148.00 L 308.00,152.00 L 313.00,158.00 L 316.00,164.00 L 316.00,171.00 L 314.00,172.00 L 313.00,170.00 L 307.00,164.00 L 300.00,160.00 L 298.00,160.00 L 291.00,156.00 L 287.00,155.00 L 285.00,153.00 L 281.00,151.00 L 273.00,143.00 L 268.00,134.00 L 268.00,132.00 L 267.00,131.00 L 267.00,127.00 L 266.00,126.00 L 266.00,117.00 L 267.00,116.00 L 267.00,112.00 L 268.00,111.00 Z M 248.00,99.00 L 247.00,99.00 L 242.00,104.00 L 241.00,104.00 L 228.00,115.00 L 227.00,115.00 L 222.00,120.00 L 218.00,121.00 L 216.00,123.00 L 212.00,125.00 L 208.00,129.00 L 204.00,131.00 L 186.00,148.00 L 185.00,148.00 L 184.00,146.00 L 187.00,143.00 L 187.00,142.00 L 196.00,132.00 L 196.00,131.00 L 221.00,104.00 L 221.00,103.00 L 228.00,94.00 L 218.00,103.00 L 217.00,103.00 L 198.00,119.00 L 193.00,122.00 L 185.00,130.00 L 184.00,130.00 L 171.00,144.00 L 171.00,145.00 L 167.00,150.00 L 164.00,156.00 L 164.00,158.00 L 162.00,161.00 L 162.00,164.00 L 161.00,165.00 L 161.00,168.00 L 160.00,169.00 L 160.00,175.00 L 159.00,176.00 L 159.00,188.00 L 160.00,189.00 L 160.00,194.00 L 161.00,195.00 L 162.00,202.00 L 166.00,210.00 L 165.00,212.00 L 164.00,212.00 L 162.00,210.00 L 160.00,206.00 L 160.00,204.00 L 158.00,201.00 L 158.00,199.00 L 157.00,198.00 L 157.00,194.00 L 156.00,193.00 L 156.00,187.00 L 155.00,186.00 L 155.00,175.00 L 156.00,174.00 L 156.00,168.00 L 157.00,167.00 L 157.00,164.00 L 159.00,160.00 L 158.00,160.00 L 157.00,163.00 L 155.00,165.00 L 148.00,179.00 L 148.00,181.00 L 147.00,182.00 L 147.00,184.00 L 144.00,191.00 L 144.00,194.00 L 143.00,195.00 L 143.00,200.00 L 142.00,201.00 L 142.00,209.00 L 141.00,210.00 L 141.00,217.00 L 142.00,218.00 L 142.00,225.00 L 143.00,226.00 L 143.00,230.00 L 144.00,231.00 L 146.00,239.00 L 148.00,242.00 L 148.00,244.00 L 151.00,250.00 L 153.00,252.00 L 154.00,255.00 L 160.00,262.00 L 160.00,263.00 L 172.00,275.00 L 172.00,265.00 L 173.00,264.00 L 173.00,229.00 L 172.00,228.00 L 172.00,221.00 L 178.00,215.00 L 179.00,215.00 L 183.00,219.00 L 184.00,219.00 L 198.00,233.00 L 199.00,233.00 L 203.00,237.00 L 204.00,237.00 L 207.00,240.00 L 212.00,243.00 L 212.00,240.00 L 204.00,232.00 L 204.00,231.00 L 200.00,227.00 L 200.00,226.00 L 194.00,218.00 L 193.00,215.00 L 190.00,211.00 L 190.00,209.00 L 188.00,206.00 L 188.00,204.00 L 186.00,200.00 L 186.00,197.00 L 185.00,196.00 L 185.00,193.00 L 184.00,192.00 L 184.00,184.00 L 183.00,182.00 L 184.00,181.00 L 184.00,173.00 L 185.00,172.00 L 185.00,169.00 L 186.00,168.00 L 186.00,165.00 L 188.00,162.00 L 188.00,160.00 L 195.00,148.00 L 198.00,145.00 L 199.00,145.00 L 200.00,147.00 L 198.00,149.00 L 195.00,155.00 L 195.00,157.00 L 193.00,160.00 L 192.00,166.00 L 191.00,167.00 L 191.00,186.00 L 192.00,187.00 L 192.00,190.00 L 193.00,191.00 L 194.00,196.00 L 199.00,206.00 L 201.00,208.00 L 205.00,215.00 L 212.00,222.00 L 217.00,220.00 L 220.00,217.00 L 220.00,186.00 L 219.00,185.00 L 219.00,183.00 L 217.00,179.00 L 217.00,175.00 L 216.00,174.00 L 216.00,153.00 L 217.00,152.00 L 218.00,145.00 L 219.00,144.00 L 221.00,136.00 L 228.00,123.00 L 230.00,121.00 L 232.00,117.00 L 236.00,113.00 L 236.00,112.00 Z M 296.00,85.00 L 303.00,91.00 L 307.00,91.00 L 311.00,93.00 L 316.00,98.00 L 320.00,100.00 L 325.00,101.00 L 330.00,105.00 L 335.00,107.00 L 337.00,109.00 L 341.00,111.00 L 329.00,99.00 L 328.00,95.00 L 327.00,94.00 L 327.00,89.00 L 325.00,87.00 L 321.00,85.00 L 313.00,85.00 L 312.00,86.00 L 309.00,86.00 L 308.00,87.00 L 301.00,87.00 L 300.00,86.00 Z M 315.00,93.00 L 316.00,92.00 L 318.00,92.00 L 319.00,94.00 L 322.00,96.00 L 322.00,97.00 L 321.00,98.00 L 319.00,98.00 L 315.00,94.00 Z M 216.00,75.00 L 206.00,83.00 L 200.00,86.00 L 195.00,90.00 L 171.00,102.00 L 169.00,104.00 L 158.00,109.00 L 153.00,113.00 L 147.00,116.00 L 139.00,123.00 L 138.00,123.00 L 131.00,130.00 L 131.00,131.00 L 125.00,138.00 L 123.00,143.00 L 120.00,147.00 L 120.00,149.00 L 118.00,152.00 L 118.00,154.00 L 116.00,158.00 L 116.00,161.00 L 115.00,162.00 L 115.00,167.00 L 114.00,168.00 L 114.00,188.00 L 115.00,189.00 L 115.00,194.00 L 116.00,195.00 L 116.00,199.00 L 118.00,203.00 L 118.00,206.00 L 119.00,207.00 L 121.00,215.00 L 124.00,220.00 L 124.00,222.00 L 130.00,234.00 L 139.00,247.00 L 137.00,240.00 L 136.00,239.00 L 136.00,236.00 L 134.00,232.00 L 134.00,227.00 L 133.00,226.00 L 133.00,220.00 L 132.00,219.00 L 132.00,200.00 L 133.00,199.00 L 133.00,193.00 L 134.00,192.00 L 135.00,184.00 L 136.00,183.00 L 138.00,175.00 L 140.00,172.00 L 140.00,170.00 L 146.00,158.00 L 148.00,156.00 L 154.00,146.00 L 158.00,142.00 L 158.00,141.00 L 178.00,121.00 L 179.00,121.00 L 192.00,110.00 L 193.00,110.00 L 203.00,102.00 L 204.00,102.00 L 214.00,93.00 L 199.00,102.00 L 197.00,102.00 L 192.00,105.00 L 187.00,106.00 L 184.00,108.00 L 182.00,107.00 L 183.00,105.00 L 184.00,105.00 L 199.00,91.00 L 200.00,91.00 L 214.00,77.00 L 215.00,77.00 Z M 202.00,58.00 L 200.00,59.00 L 192.00,59.00 L 191.00,60.00 L 182.00,61.00 L 181.00,62.00 L 178.00,62.00 L 177.00,63.00 L 169.00,65.00 L 164.00,68.00 L 162.00,68.00 L 154.00,72.00 L 152.00,74.00 L 145.00,78.00 L 129.00,93.00 L 129.00,94.00 L 125.00,98.00 L 125.00,99.00 L 120.00,105.00 L 115.00,115.00 L 113.00,117.00 L 113.00,119.00 L 109.00,126.00 L 109.00,128.00 L 108.00,129.00 L 108.00,131.00 L 107.00,132.00 L 107.00,134.00 L 104.00,141.00 L 104.00,145.00 L 103.00,146.00 L 102.00,159.00 L 101.00,160.00 L 101.00,171.00 L 102.00,170.00 L 102.00,166.00 L 103.00,165.00 L 104.00,159.00 L 106.00,156.00 L 106.00,154.00 L 113.00,140.00 L 120.00,131.00 L 120.00,130.00 L 136.00,114.00 L 137.00,114.00 L 144.00,108.00 L 160.00,98.00 L 163.00,95.00 L 167.00,93.00 L 170.00,90.00 L 175.00,87.00 L 182.00,80.00 L 183.00,80.00 L 195.00,68.00 L 195.00,67.00 L 201.00,61.00 Z M 241.00,52.00 L 234.00,58.00 L 232.00,62.00 L 232.00,74.00 L 233.00,75.00 L 233.00,77.00 L 238.00,85.00 L 242.00,88.00 L 249.00,91.00 L 255.00,91.00 L 247.00,87.00 L 244.00,83.00 L 245.00,81.00 L 253.00,81.00 L 250.00,80.00 L 244.00,75.00 L 244.00,74.00 L 242.00,72.00 L 242.00,70.00 L 240.00,66.00 L 245.00,61.00 L 247.00,61.00 L 248.00,60.00 L 256.00,60.00 L 257.00,61.00 L 259.00,61.00 L 266.00,64.00 L 260.00,58.00 L 252.00,53.00 L 250.00,53.00 L 249.00,52.00 Z M 272.00,38.00 L 268.00,36.00 L 266.00,34.00 L 262.00,32.00 L 260.00,32.00 L 257.00,30.00 L 255.00,30.00 L 248.00,27.00 L 245.00,27.00 L 244.00,26.00 L 239.00,26.00 L 238.00,25.00 L 231.00,25.00 L 230.00,24.00 L 213.00,24.00 L 212.00,25.00 L 204.00,25.00 L 203.00,26.00 L 194.00,27.00 L 193.00,28.00 L 187.00,29.00 L 181.00,32.00 L 176.00,33.00 L 164.00,39.00 L 162.00,41.00 L 159.00,42.00 L 153.00,47.00 L 149.00,49.00 L 125.00,71.00 L 111.00,79.00 L 103.00,81.00 L 105.00,82.00 L 108.00,82.00 L 109.00,83.00 L 117.00,83.00 L 118.00,82.00 L 121.00,82.00 L 134.00,76.00 L 144.00,69.00 L 163.00,60.00 L 165.00,60.00 L 166.00,59.00 L 168.00,59.00 L 175.00,56.00 L 183.00,55.00 L 184.00,54.00 L 197.00,53.00 L 198.00,52.00 L 208.00,52.00 L 209.00,50.00 L 221.00,39.00 L 234.00,33.00 L 237.00,33.00 L 238.00,32.00 L 254.00,32.00 L 255.00,33.00 L 259.00,33.00 L 260.00,34.00 L 265.00,35.00 L 270.00,38.00 Z M 175.00,23.00 L 177.00,23.00 L 181.00,21.00 L 184.00,21.00 L 188.00,19.00 L 193.00,19.00 L 194.00,18.00 L 199.00,18.00 L 200.00,17.00 L 210.00,17.00 L 211.00,16.00 L 228.00,16.00 L 229.00,17.00 L 237.00,17.00 L 238.00,18.00 L 249.00,19.00 L 250.00,20.00 L 253.00,20.00 L 254.00,21.00 L 265.00,24.00 L 281.00,32.00 L 297.00,47.00 L 297.00,48.00 L 301.00,53.00 L 303.00,53.00 L 306.00,55.00 L 308.00,55.00 L 312.00,57.00 L 317.00,61.00 L 320.00,62.00 L 331.00,72.00 L 332.00,72.00 L 342.00,82.00 L 343.00,86.00 L 344.00,87.00 L 344.00,91.00 L 343.00,93.00 L 350.00,100.00 L 350.00,101.00 L 355.00,107.00 L 356.00,110.00 L 360.00,113.00 L 367.00,116.00 L 378.00,124.00 L 378.00,123.00 L 376.00,121.00 L 375.00,121.00 L 358.00,104.00 L 357.00,104.00 L 355.00,102.00 L 355.00,103.00 L 353.00,104.00 L 351.00,102.00 L 351.00,101.00 L 349.00,99.00 L 350.00,97.00 L 350.00,92.00 L 351.00,91.00 L 350.00,85.00 L 348.00,83.00 L 348.00,82.00 L 344.00,79.00 L 344.00,81.00 L 342.00,82.00 L 340.00,80.00 L 340.00,78.00 L 341.00,77.00 L 327.00,65.00 L 327.00,62.00 L 328.00,61.00 L 328.00,59.00 L 329.00,58.00 L 329.00,54.00 L 330.00,53.00 L 330.00,46.00 L 329.00,45.00 L 329.00,41.00 L 328.00,40.00 L 328.00,38.00 L 325.00,31.00 L 325.00,36.00 L 326.00,37.00 L 325.00,45.00 L 322.00,52.00 L 320.00,54.00 L 320.00,55.00 L 318.00,56.00 L 317.00,54.00 L 318.00,53.00 L 318.00,49.00 L 319.00,48.00 L 319.00,39.00 L 318.00,38.00 L 318.00,34.00 L 317.00,33.00 L 317.00,31.00 L 314.00,25.00 L 309.00,19.00 L 309.00,18.00 L 300.00,10.00 L 295.00,8.00 L 293.00,6.00 L 291.00,6.00 L 288.00,4.00 L 286.00,4.00 L 282.00,2.00 L 278.00,2.00 L 277.00,0.00 L 276.00,0.00 L 277.00,2.00 L 285.00,6.00 L 296.00,17.00 L 296.00,18.00 L 298.00,20.00 L 300.00,24.00 L 300.00,26.00 L 302.00,29.00 L 302.00,32.00 L 303.00,33.00 L 303.00,39.00 L 304.00,40.00 L 304.00,42.00 L 303.00,43.00 L 301.00,42.00 L 300.00,37.00 L 293.00,25.00 L 284.00,16.00 L 273.00,9.00 L 271.00,9.00 L 268.00,7.00 L 266.00,7.00 L 259.00,4.00 L 254.00,4.00 L 253.00,3.00 L 245.00,3.00 L 244.00,2.00 L 231.00,2.00 L 230.00,3.00 L 223.00,3.00 L 222.00,4.00 L 218.00,4.00 L 217.00,5.00 L 210.00,6.00 L 209.00,7.00 L 204.00,8.00 L 201.00,10.00 L 199.00,10.00 L 196.00,12.00 L 194.00,12.00 L 184.00,17.00 L 182.00,19.00 L 179.00,20.00 Z " fill="url(#gold)" fill-rule="evenodd"/>
</svg>