<?xml version="1.0" encoding="UTF-8" standalone="no"?>
<svg
   width="1400"
   height="330"
   viewBox="0 0 1400 330"
   version="1.1"
   id="svg9"
   xmlns="http://www.w3.org/2000/svg"
   xmlns:svg="http://www.w3.org/2000/svg">
  <defs
     id="defs4">
    <linearGradient
       id="goldText"
       x1="0"
       y1="0"
       x2="1"
       y2="0">
      <stop
         offset="0"
         stop-color="#a86f10"
         id="stop1" />
      <stop
         offset="0.45"
         stop-color="#d4a735"
         id="stop2" />
      <stop
         offset="0.7"
         stop-color="#f0ce69"
         id="stop3" />
      <stop
         offset="1"
         stop-color="#a86f10"
         id="stop4" />
    </linearGradient>
  </defs>
  <path
     d="m 57.52,110.68 c 0.32,0.32 0.4,0.64 0.4,0.96 0,0.4 -0.4,0.72 -1.12,0.88 h -2.24 l -0.08,2.56 c 8.48,-0.16 14.56,-0.16 18.48,0 v -2.4 c -2.88,-0.24 -4.8,-0.88 -5.68,-2 L 50.88,88.44 c 4.64,-0.32 8.48,-1.68 11.36,-4.08 2.96,-2.64 4.48,-6 4.48,-10.24 0,-4.24 -1.6,-7.76 -4.8,-10.16 -3.44,-2.64 -8.48,-4.08 -14.96,-4.08 H 22.72 v 2.48 h 7.44 v 50.16 H 22.72 V 115 h 22.24 v -2.48 H 37.52 L 37.36,88.84 h 4.88 z m 1.04,-36.72 c 0.24,8.4 -4.48,12.56 -14.24,12.56 H 37.36 L 37.52,62.36 H 46 c 8.08,0 12.32,3.84 12.56,11.6 z m 68.46008,21.92 c -0.24,5.36 -2,9.52 -5.12,12.48 -1.04,1.04 -2.56,1.92 -4.72,2.72 -2.08,0.8 -3.84,1.2 -5.36,1.2 l -14.960004,0.24 V 88.28 h 9.760004 c 3.92,0 6.96,3.52 6.96,10 h 2.48 V 76.12 h -2.48 c 0,3.28 -0.64,5.76 -1.84,7.44 -1.12,1.36 -2.8,2 -5.12,2 h -9.760004 v -23.2 l 13.680004,0.16 c 10.16,0.24 13.84,4.56 14.56,13.6 h 2.48 l -0.16,-16.24 H 82.220076 v 2.48 h 7.52 v 50.16 h -7.52 V 115 h 46.480004 l 0.88,-19.12 z m 70.45999,16.64 h -5.92 l -18.88,-54.16 h -3.2 l -17.36,45.6 c -1.52,4.24 -3.04,6.8 -4.4,7.68 -1.04,0.64 -2.96,0.96 -5.76,0.88 V 115 h 17.44 v -2.48 c -3.04,0 -4.72,-0.24 -5.04,-0.72 -0.32,-0.48 -0.48,-1.12 -0.48,-1.84 0,-1.52 0.48,-3.52 1.44,-6 l 3.04,-7.2 h 19.28 l 5.44,15.76 h -6.4 V 115 h 20.8 z m -38,-18.8 9.12,-23.44 7.92,23.44 z m 90.93994,2.16 c -0.24,5.36 -2,9.52 -5.12,12.48 -1.04,1.04 -2.64,1.92 -4.8,2.72 -2.08,0.8 -3.84,1.2 -5.28,1.2 l -12.24,0.24 V 62.36 h 7.52 v -2.48 h -22.16 v 2.48 h 7.52 v 50.16 h -7.52 V 115 h 43.6 l 1.04,-19.12 z m 94.03998,0 c -0.24,5.36 -2,9.52 -5.12,12.48 -1.04,1.04 -2.56,1.92 -4.72,2.72 -2.08,0.8 -3.84,1.2 -5.36,1.2 l -14.96,0.24 V 88.28 h 9.76 c 3.92,0 6.96,3.52 6.96,10 h 2.48 V 76.12 h -2.48 c 0,3.28 -0.64,5.76 -1.84,7.44 -1.12,1.36 -2.8,2 -5.12,2 h -9.76 v -23.2 l 13.68,0.16 c 10.16,0.24 13.84,4.56 14.56,13.6 h 2.48 l -0.16,-16.24 h -45.2 v 2.48 h 7.52 v 50.16 h -7.52 V 115 h 46.48 l 0.88,-19.12 z m 51.73999,1.52 c 0,-8.48 -6,-13.36 -17.84,-14.64 -8.48,-0.88 -12.72,-4.4 -12.8,-10.48 -0.08,-6.8 3.68,-10.32 11.44,-10.48 7.92,-0.08 11.84,3.12 12.56,11.12 h 2.4 V 58.6 h -2.24 c -0.24,0.8 -0.8,1.2 -1.6,1.2 -1.68,0 -5.2,-1.36 -9.28,-1.36 -5.28,0 -9.76,1.28 -13.44,3.84 -4.32,2.96 -6.48,7.36 -6.48,12.88 0,8.16 5.68,12.88 17.04,14.24 4.16,0.48 7.44,1.6 9.84,3.6 2.56,2.24 3.84,5.04 3.84,8.56 -0.08,3.28 -1.44,5.92 -4.24,7.92 -2.72,1.84 -6,2.88 -9.68,2.96 -3.2,0.08 -7.76,-1.28 -9.84,-2.96 -2.16,-1.84 -3.44,-4.8 -3.76,-9.12 h -2.4 l -0.08,12.72 c 4.88,1.84 9.28,2.72 13.04,2.72 6.48,0 11.84,-1.44 16.08,-4.24 4.96,-3.28 7.44,-8 7.44,-14.16 z m 58.62004,-37.52 h -48.16 l -0.16,16.24 h 2.32 c 0.48,-4.72 1.76,-8.16 3.76,-10.16 2,-2 5.68,-3.2 10.88,-3.44 l 3.6,-0.16 v 50.16 h -7.44 V 115 h 22.24 v -2.48 h -7.52 V 62.36 l 3.68,0.16 c 5.2,0.24 8.88,1.44 10.96,3.6 2.08,2.16 3.28,5.44 3.6,10 h 2.4 z m 60.77999,52.64 h -5.92 l -18.88,-54.16 h -3.2 l -17.36,45.6 c -1.52,4.24 -3.04,6.8 -4.4,7.68 -1.04,0.64 -2.96,0.96 -5.76,0.88 V 115 h 17.44 v -2.48 c -3.04,0 -4.72,-0.24 -5.04,-0.72 -0.32,-0.48 -0.48,-1.12 -0.48,-1.84 0,-1.52 0.48,-3.52 1.44,-6 l 3.04,-7.2 h 19.28 l 5.44,15.76 h -6.4 V 115 h 20.8 z m -38,-18.8 9.12,-23.44 7.92,23.44 z m 91.89997,-33.84 h -48.16 l -0.16,16.24 h 2.32 c 0.48,-4.72 1.76,-8.16 3.76,-10.16 2,-2 5.68,-3.2 10.88,-3.44 l 3.6,-0.16 v 50.16 h -7.44 V 115 h 22.24 v -2.48 h -7.52 V 62.36 l 3.68,0.16 c 5.2,0.24 8.88,1.44 10.96,3.6 2.08,2.16 3.28,5.44 3.6,10 h 2.4 z m 56.45998,36 c -0.24,5.36 -2,9.52 -5.12,12.48 -1.04,1.04 -2.56,1.92 -4.72,2.72 -2.08,0.8 -3.84,1.2 -5.36,1.2 l -14.96,0.24 V 88.28 h 9.76 c 3.92,0 6.96,3.52 6.96,10 h 2.48 V 76.12 h -2.48 c 0,3.28 -0.64,5.76 -1.84,7.44 -1.12,1.36 -2.8,2 -5.12,2 h -9.76 v -23.2 l 13.68,0.16 c 10.16,0.24 13.84,4.56 14.56,13.6 h 2.48 l -0.16,-16.24 h -45.2 v 2.48 h 7.52 v 50.16 h -7.52 V 115 h 46.48 l 0.88,-19.12 z"
     id="text4"
     style="font-size:80px;font-family:'GFS Didot';letter-spacing:5.5;fill:#171717"
     aria-label="REAL ESTATE" />
  <path
     d="m 717.96,101.16 c 0.08,-4.72 -1.76,-8.48 -5.36,-11.12 -2.88,-2.08 -6.08,-3.2 -9.68,-3.28 7.12,-1.2 12.56,-6.08 12.56,-13.2 0,-8.32 -6.08,-13.68 -16.32,-13.68 h -28 v 2.48 h 7.52 v 50.16 h -7.52 V 115 H 699 c 12.56,0 18.88,-4.64 18.96,-13.84 z m -10.4,-27.68 c 0,4.24 -1.36,7.52 -4.08,9.76 -2.08,1.68 -4.4,2.56 -7.04,2.56 H 685.96 V 62.36 h 11.76 c 6.56,0 9.84,3.68 9.84,11.12 z m 1.68,27.44 c 0,4.4 -1.44,7.6 -4.32,9.52 -2.08,1.36 -4.64,2.08 -7.76,2.08 h -11.2 V 88.2 h 10.56 c 3.2,0 5.92,0.8 8.16,2.48 2.96,2.24 4.48,5.68 4.56,10.24 z m 69.26006,-5.04 c -0.24,5.36 -2,9.52 -5.12,12.48 -1.04,1.04 -2.56,1.92 -4.72,2.72 -2.08,0.8 -3.84,1.2 -5.36,1.2 l -14.96,0.24 V 88.28 h 9.76 c 3.92,0 6.96,3.52 6.96,10 h 2.48 V 76.12 h -2.48 c 0,3.28 -0.64,5.76 -1.84,7.44 -1.12,1.36 -2.8,2 -5.12,2 h -9.76 v -23.2 l 13.68,0.16 c 10.16,0.24 13.84,4.56 14.56,13.6 h 2.48 l -0.16,-16.24 h -45.2 v 2.48 h 7.52 v 50.16 h -7.52 V 115 h 46.48 l 0.88,-19.12 z m 65.73999,-36 h -17.52 l -0.08,2.64 c 2.64,-0.08 4.24,0.08 4.64,0.48 0.88,0.72 1.28,1.36 1.28,2 0,1.36 -0.8,3.52 -2.4,6.32 l -9.12,17.84 c -4.8,-8.88 -9.6,-17.84 -14.48,-26.8 h 5.92 v -2.48 h -20.88 v 2.48 h 6.08 l 17.6,30.96 v 19.28 l -7.36,-0.08 V 115 l 22.56,0.08 v -2.56 l -7.68,0.08 V 92.92 l 11.6,-22.48 c 1.52,-3.2 2.8,-5.36 4,-6.48 0.88,-0.88 2.8,-1.2 5.92,-1.12 z m 53.58001,27.84 c 0,-8.88 -2.16,-16 -6.56,-21.28 -4.32,-5.36 -10.24,-8 -17.68,-8 -6.96,0 -12.72,2.56 -17.28,7.76 -4.72,5.44 -7.12,12.48 -7.2,21.04 -0.08,8 2.24,14.8 7.04,20.48 4.88,5.6 10.64,8.4 17.44,8.4 6.96,0 12.72,-2.72 17.28,-8.24 4.64,-5.52 6.96,-12.24 6.96,-20.16 z m -8.88,-0.16 c 0,7.68 -1.2,13.76 -3.68,18.32 -2.64,4.96 -6.48,7.44 -11.44,7.44 -10.56,0 -15.84,-8.72 -15.84,-26.08 0,-8.32 1.04,-14.64 3.2,-18.88 2.56,-4.96 6.72,-7.44 12.4,-7.44 5.36,0 9.36,2.64 12,7.84 2.24,4.48 3.36,10.72 3.36,18.8 z m 75.42003,-27.68 h -17.68 v 2.48 c 2.96,0 4.72,0.24 5.28,0.72 1.52,1.44 2.24,3.52 2.24,6.24 v 31.76 l -26.48,-41.2 h -16 v 2.48 h 4.48 c 1.44,0 2.24,0.64 2.4,1.84 v 41.44 c 0,2.8 -0.72,4.88 -2.24,6.16 -0.56,0.48 -2.32,0.72 -5.28,0.72 V 115 h 17.68 v -2.48 c -3.12,0 -4.88,-0.24 -5.44,-0.8 -1.36,-1.28 -2,-3.28 -2,-6.08 V 64.2 l 33.84,52.16 h 1.84 l -0.16,-47.04 c 0,-2.72 0.72,-4.8 2.08,-6.16 0.56,-0.56 2.32,-0.8 5.44,-0.8 z m 62.78001,28.24 c 0,-8.56 -2.16,-15.28 -6.56,-20.32 -4.32,-5.04 -10.24,-7.52 -17.68,-7.6 -6.24002,-0.08 -11.28002,-0.08 -15.12002,0 -4.16,0.08 -8.32,-0.08 -12.4,-0.32 v 2.48 h 7.52 v 50.16 h -7.52 V 115 c 3.44,-0.08 7.2,-0.16 11.2,-0.16 4.88,0.08 10.24,0.16 16.08002,0.32 6.48,0.24 12.16,-2.4 17.04,-7.76 4.96,-5.36 7.44,-11.84 7.44,-19.28 z m -8.48,-0.24 c 0.08,7.12 -1.12,12.72 -3.76,16.96 -2.64,4.56 -6.72,7.2 -12.16,8 -0.88,0.08 -2,0.16 -3.44002,0.16 -2.56,0 -5.68,-0.16 -9.28,-0.48 V 62.68 c 3.92,-0.48 8.24,-0.56 12.88002,-0.32 5.92,0.48 10.16,3.28 12.64,8.32 2,3.92 3.04,9.6 3.12,17.2 z"
     id="text5"
     style="font-size:80px;font-family:'GFS Didot';letter-spacing:5.5;fill:url(#goldText)"
     aria-label="BEYOND" />
  <path
     d="m 1117.6,95.88 c -0.24,5.36 -2,9.52 -5.12,12.48 -1.04,1.04 -2.64,1.92 -4.8,2.72 -2.08,0.8 -3.84,1.2 -5.28,1.2 l -12.24,0.24 V 62.36 h 7.52 v -2.48 h -22.16 v 2.48 h 7.52 v 50.16 h -7.52 V 115 h 43.6 l 1.04,-19.12 z m 38.3,16.64 h -7.44 V 62.36 h 7.44 v -2.48 h -22.88 v 2.48 h 7.52 v 50.16 h -7.52 V 115 h 22.88 z m 76.94,0 h -7.44 V 62.36 h 7.44 v -2.48 h -15.28 l -16.8,41.6 -14.72,-41.6 h -15.76 v 2.48 h 4.48 c 1.44,0 2.24,0.64 2.4,1.84 v 41.44 c 0,2.8 -0.72,4.88 -2.24,6.16 -0.56,0.48 -2.32,0.72 -5.28,0.72 V 115 h 17.6 v -2.48 c -3.12,0 -4.88,-0.24 -5.44,-0.8 -1.36,-1.36 -2,-3.36 -2,-6.08 v -40 l 17.68,48.56 1.2,-0.08 19.36,-48.72 v 47.12 h -7.44 V 115 h 22.24 z m 37.3399,0 h -7.44 V 62.36 h 7.44 v -2.48 h -22.88 v 2.48 h 7.52 v 50.16 h -7.52 V 115 h 22.88 z m 60.4599,-52.64 h -48.16 l -0.16,16.24 h 2.32 c 0.48,-4.72 1.76,-8.16 3.76,-10.16 2,-2 5.68,-3.2 10.88,-3.44 l 3.6,-0.16 v 50.16 h -7.44 V 115 h 22.24 v -2.48 h -7.52 V 62.36 l 3.68,0.16 c 5.2,0.24 8.88,1.44 10.96,3.6 2.08,2.16 3.28,5.44 3.6,10 h 2.4 z m 46.86,37.52 c 0,-8.48 -6,-13.36 -17.84,-14.64 -8.48,-0.88 -12.72,-4.4 -12.8,-10.48 -0.08,-6.8 3.68,-10.32 11.44,-10.48 7.92,-0.08 11.84,3.12 12.56,11.12 h 2.4 V 58.6 h -2.24 c -0.24,0.8 -0.8,1.2 -1.6,1.2 -1.68,0 -5.2,-1.36 -9.28,-1.36 -5.28,0 -9.76,1.28 -13.44,3.84 -4.32,2.96 -6.48,7.36 -6.48,12.88 0,8.16 5.68,12.88 17.04,14.24 4.16,0.48 7.44,1.6 9.84,3.6 2.56,2.24 3.84,5.04 3.84,8.56 -0.08,3.28 -1.44,5.92 -4.24,7.92 -2.72,1.84 -6,2.88 -9.68,2.96 -3.2,0.08 -7.76,-1.28 -9.84,-2.96 -2.16,-1.84 -3.44,-4.8 -3.76,-9.12 h -2.4 l -0.08,12.72 c 4.88,1.84 9.28,2.72 13.04,2.72 6.48,0 11.84,-1.44 16.08,-4.24 4.96,-3.28 7.44,-8 7.44,-14.16 z"
     id="text6"
     style="font-size:80px;font-family:'GFS Didot';letter-spacing:5.5;fill:#171717"
     aria-label="LIMITS" />
  <line
     x1="145"
     y1="176"
     x2="585"
     y2="176"
     stroke="#bd861e"
     stroke-width="3"
     id="line6" />
  <line
     x1="815"
     y1="176"
     x2="1255"
     y2="176"
     stroke="#bd861e"
     stroke-width="3"
     id="line7" />
  <path
     d="M663 184 L676 145 L697 169 L718 138 L739 169 L760 145 L773 184 Z M660 189 H776 L769 201 H667 Z"
     fill="url(#goldText)"
     id="path7" />
  <circle
     cx="676"
     cy="144"
     r="4"
     fill="#d4a735"
     id="circle7" />
  <circle
     cx="718"
     cy="137"
     r="4"
     fill="#e7c65a"
     id="circle8" />
  <circle
     cx="760"
     cy="144"
     r="4"
     fill="#d4a735"
     id="circle9" />
  <path
     d="m 309.95705,276.624 c -1.638,1.638 -3.108,2.772 -4.494,3.402 -1.68,0.798 -3.696,1.176 -6.048,1.134 -2.394,-0.042 -4.284,-1.344 -5.712,-3.822 -1.386,-2.52 -2.1,-5.796 -2.1,-9.786 0,-9.03 2.73,-13.65 8.148,-13.902 5.04,-0.21 6.972,2.016 7.35,6.846 h 1.26 v -6.594 c -1.428,-0.546 -2.436,-0.882 -3.066,-1.008 -1.428,-0.294 -3.318,-0.462 -5.67,-0.462 -3.612,0 -6.636,1.344 -9.072,4.074 -2.52,2.814 -3.78,6.51 -3.822,11.046 -0.042,4.158 1.218,7.728 3.738,10.71 2.52,2.94 5.586,4.41 9.156,4.41 2.478,0 4.494,-0.378 6.09,-1.092 1.764,-0.798 3.36,-2.226 4.83,-4.284 z m 48.12199,4.074 h -3.906 v -26.334 h 3.906 v -1.302 h -11.676 v 1.302 h 3.948 v 11.676 h -12.894 v -11.676 h 3.906 v -1.302 h -11.592 v 1.302 h 3.948 v 26.334 h -3.948 V 282 h 11.592 v -1.302 h -3.906 V 267.51 h 12.894 v 13.188 h -3.948 V 282 h 11.676 z m 38.37797,-0.966 c 0.168,0.168 0.21,0.336 0.21,0.504 0,0.21 -0.21,0.378 -0.588,0.462 h -1.176 l -0.042,1.344 c 4.452,-0.084 7.644,-0.084 9.702,0 v -1.26 c -1.512,-0.126 -2.52,-0.462 -2.982,-1.05 l -8.61,-11.676 c 2.436,-0.168 4.452,-0.882 5.964,-2.142 1.554,-1.386 2.352,-3.15 2.352,-5.376 0,-2.226 -0.84,-4.074 -2.52,-5.334 -1.806,-1.386 -4.452,-2.142 -7.854,-2.142 h -12.726 v 1.302 h 3.906 v 26.334 h -3.906 V 282 h 11.676 v -1.302 h -3.906 l -0.084,-12.432 h 2.562 z m 0.546,-19.278 c 0.126,4.41 -2.352,6.594 -7.476,6.594 h -3.654 l 0.084,-12.684 h 4.452 c 4.242,0 6.468,2.016 6.594,6.09 z m 38.46205,20.244 h -3.906 v -26.334 h 3.906 v -1.302 h -12.012 v 1.302 h 3.948 v 26.334 h -3.948 V 282 h 12.012 z m 39.51196,-7.938 c 0,-4.452 -3.15,-7.014 -9.366,-7.686 -4.452,-0.462 -6.678,-2.31 -6.72,-5.502 -0.042,-3.57 1.932,-5.418 6.006,-5.502 4.158,-0.042 6.216,1.638 6.594,5.838 h 1.26 v -7.518 h -1.176 c -0.126,0.42 -0.42,0.63 -0.84,0.63 -0.882,0 -2.73,-0.714 -4.872,-0.714 -2.772,0 -5.124,0.672 -7.056,2.016 -2.268,1.554 -3.402,3.864 -3.402,6.762 0,4.284 2.982,6.762 8.946,7.476 2.184,0.252 3.906,0.84 5.166,1.89 1.344,1.176 2.016,2.646 2.016,4.494 -0.042,1.722 -0.756,3.108 -2.226,4.158 -1.428,0.966 -3.15,1.512 -5.082,1.554 -1.68,0.042 -4.074,-0.672 -5.166,-1.554 -1.134,-0.966 -1.806,-2.52 -1.974,-4.788 h -1.26 l -0.042,6.678 c 2.562,0.966 4.872,1.428 6.846,1.428 3.402,0 6.216,-0.756 8.442,-2.226 2.604,-1.722 3.906,-4.2 3.906,-7.434 z m 44.88802,-19.698 h -25.284 l -0.084,8.526 h 1.218 c 0.252,-2.478 0.924,-4.284 1.974,-5.334 1.05,-1.05 2.982,-1.68 5.712,-1.806 l 1.89,-0.084 v 26.334 h -3.906 V 282 h 11.676 v -1.302 h -3.948 v -26.334 l 1.932,0.084 c 2.73,0.126 4.662,0.756 5.754,1.89 1.092,1.134 1.722,2.856 1.89,5.25 h 1.26 z m 45.93797,14.616 c 0,-4.662 -1.134,-8.4 -3.444,-11.172 -2.268,-2.814 -5.376,-4.2 -9.282,-4.2 -3.654,0 -6.678,1.344 -9.072,4.074 -2.478,2.856 -3.738,6.552 -3.78,11.046 -0.042,4.2 1.176,7.77 3.696,10.752 2.562,2.94 5.586,4.41 9.156,4.41 3.654,0 6.678,-1.428 9.072,-4.326 2.436,-2.898 3.654,-6.426 3.654,-10.584 z m -4.662,-0.084 c 0,4.032 -0.63,7.224 -1.932,9.618 -1.386,2.604 -3.402,3.906 -6.006,3.906 -5.544,0 -8.316,-4.578 -8.316,-13.692 0,-4.368 0.546,-7.686 1.68,-9.912 1.344,-2.604 3.528,-3.906 6.51,-3.906 2.814,0 4.914,1.386 6.3,4.116 1.176,2.352 1.764,5.628 1.764,9.87 z m 48.54202,-6.342 c 0,-2.436 -0.882,-4.41 -2.604,-5.88 -1.806,-1.554 -4.452,-2.31 -7.854,-2.31 h -12.726 v 1.302 h 3.948 v 26.334 h -3.948 V 282 h 11.676 v -1.302 h -3.906 v -11.256 h 3.528 c 3.444,0 6.216,-0.63 8.316,-1.932 2.394,-1.47 3.57,-3.57 3.57,-6.258 z m -4.326,0.126 c 0.042,2.394 -0.714,4.158 -2.352,5.376 -1.344,1.05 -3.066,1.554 -5.124,1.554 h -3.612 v -13.944 h 4.452 c 4.494,0 6.468,2.142 6.636,7.014 z m 52.32198,19.32 h -3.906 v -26.334 h 3.906 v -1.302 h -11.676 v 1.302 h 3.948 v 11.676 h -12.894 v -11.676 h 3.906 v -1.302 h -11.592 v 1.302 h 3.948 v 26.334 h -3.948 V 282 h 11.592 v -1.302 h -3.906 V 267.51 h 12.894 v 13.188 h -3.948 V 282 h 11.676 z m 44.34196,-8.736 c -0.126,2.814 -1.05,4.998 -2.688,6.552 -0.546,0.546 -1.344,1.008 -2.478,1.428 -1.092,0.42 -2.016,0.63 -2.814,0.63 l -7.854,0.126 v -12.726 h 5.124 c 2.058,0 3.654,1.848 3.654,5.25 h 1.302 v -11.634 h -1.302 c 0,1.722 -0.336,3.024 -0.966,3.906 -0.588,0.714 -1.47,1.05 -2.688,1.05 h -5.124 v -12.18 l 7.182,0.084 c 5.334,0.126 7.266,2.394 7.644,7.14 h 1.302 l -0.084,-8.526 h -23.73 v 1.302 h 3.948 v 26.334 h -3.948 V 282 h 24.402 l 0.462,-10.038 z m 40.35201,7.77 c 0.168,0.168 0.21,0.336 0.21,0.504 0,0.21 -0.21,0.378 -0.588,0.462 h -1.176 l -0.042,1.344 c 4.452,-0.084 7.644,-0.084 9.702,0 v -1.26 c -1.512,-0.126 -2.52,-0.462 -2.982,-1.05 l -8.61,-11.676 c 2.436,-0.168 4.452,-0.882 5.964,-2.142 1.554,-1.386 2.352,-3.15 2.352,-5.376 0,-2.226 -0.84,-4.074 -2.52,-5.334 -1.806,-1.386 -4.452,-2.142 -7.854,-2.142 h -12.726 v 1.302 h 3.906 v 26.334 h -3.906 V 282 h 11.676 v -1.302 h -3.906 l -0.084,-12.432 h 2.562 z m 0.546,-19.278 c 0.126,4.41 -2.352,6.594 -7.476,6.594 h -3.654 l 0.084,-12.684 h 4.452 c 4.242,0 6.468,2.016 6.594,6.09 z m 85.19802,7.434 c 0,-4.494 -1.134,-8.022 -3.444,-10.668 -2.268,-2.646 -5.376,-3.948 -9.282,-3.99 -3.276,-0.042 -5.922,-0.042 -7.938,0 -2.184,0.042 -4.368,-0.042 -6.51,-0.168 v 1.302 h 3.948 v 26.334 h -3.948 V 282 c 1.806,-0.042 3.78,-0.084 5.88,-0.084 2.562,0.042 5.376,0.084 8.442,0.168 3.402,0.126 6.384,-1.26 8.946,-4.074 2.604,-2.814 3.906,-6.216 3.906,-10.122 z m -4.452,-0.126 c 0.042,3.738 -0.588,6.678 -1.974,8.904 -1.386,2.394 -3.528,3.78 -6.384,4.2 -0.462,0.042 -1.05,0.084 -1.806,0.084 -1.344,0 -2.982,-0.084 -4.872,-0.252 v -26.166 c 2.058,-0.252 4.326,-0.294 6.762,-0.168 3.108,0.252 5.334,1.722 6.636,4.368 1.05,2.058 1.596,5.04 1.638,9.03 z m 38.16797,12.936 h -3.906 v -26.334 h 3.906 v -1.302 h -12.012 v 1.302 h 3.948 v 26.334 h -3.948 V 282 h 12.012 z m 43.45996,-4.074 c -1.638,1.638 -3.108,2.772 -4.494,3.402 -1.68,0.798 -3.696,1.176 -6.048,1.134 -2.394,-0.042 -4.284,-1.344 -5.712,-3.822 -1.386,-2.52 -2.1,-5.796 -2.1,-9.786 0,-9.03 2.73,-13.65 8.148,-13.902 5.04,-0.21 6.972,2.016 7.35,6.846 h 1.26 v -6.594 c -1.428,-0.546 -2.436,-0.882 -3.066,-1.008 -1.428,-0.294 -3.318,-0.462 -5.67,-0.462 -3.612,0 -6.636,1.344 -9.072,4.074 -2.52,2.814 -3.78,6.51 -3.822,11.046 -0.042,4.158 1.218,7.728 3.738,10.71 2.52,2.94 5.586,4.41 9.156,4.41 2.478,0 4.494,-0.378 6.09,-1.092 1.764,-0.798 3.36,-2.226 4.83,-4.284 z m 37.66401,3.108 c 0.168,0.168 0.21,0.336 0.21,0.504 0,0.21 -0.21,0.378 -0.588,0.462 h -1.176 l -0.042,1.344 c 4.452,-0.084 7.644,-0.084 9.702,0 v -1.26 c -1.512,-0.126 -2.52,-0.462 -2.982,-1.05 l -8.61,-11.676 c 2.436,-0.168 4.452,-0.882 5.964,-2.142 1.554,-1.386 2.352,-3.15 2.352,-5.376 0,-2.226 -0.84,-4.074 -2.52,-5.334 -1.806,-1.386 -4.452,-2.142 -7.854,-2.142 h -12.726 v 1.302 h 3.906 v 26.334 h -3.906 V 282 h 11.676 v -1.302 h -3.906 l -0.084,-12.432 h 2.562 z m 0.546,-19.278 c 0.126,4.41 -2.352,6.594 -7.476,6.594 h -3.654 l 0.084,-12.684 h 4.452 c 4.242,0 6.468,2.016 6.594,6.09 z m 38.46205,20.244 h -3.906 v -26.334 h 3.906 v -1.302 h -12.012 v 1.302 h 3.948 v 26.334 h -3.948 V 282 h 12.012 z m 39.51191,-7.938 c 0,-4.452 -3.15,-7.014 -9.366,-7.686 -4.452,-0.462 -6.678,-2.31 -6.72,-5.502 -0.042,-3.57 1.932,-5.418 6.006,-5.502 4.158,-0.042 6.216,1.638 6.594,5.838 h 1.26 v -7.518 h -1.176 c -0.126,0.42 -0.42,0.63 -0.84,0.63 -0.882,0 -2.73,-0.714 -4.872,-0.714 -2.772,0 -5.124,0.672 -7.056,2.016 -2.268,1.554 -3.402,3.864 -3.402,6.762 0,4.284 2.982,6.762 8.946,7.476 2.184,0.252 3.906,0.84 5.166,1.89 1.344,1.176 2.016,2.646 2.016,4.494 -0.042,1.722 -0.756,3.108 -2.226,4.158 -1.428,0.966 -3.15,1.512 -5.082,1.554 -1.68,0.042 -4.074,-0.672 -5.166,-1.554 -1.134,-0.966 -1.806,-2.52 -1.974,-4.788 h -1.26 l -0.042,6.678 c 2.562,0.966 4.872,1.428 6.846,1.428 3.402,0 6.216,-0.756 8.442,-2.226 2.604,-1.722 3.906,-4.2 3.906,-7.434 z m 44.8881,-19.698 h -25.284 l -0.084,8.526 h 1.218 c 0.252,-2.478 0.924,-4.284 1.974,-5.334 1.05,-1.05 2.982,-1.68 5.712,-1.806 l 1.89,-0.084 v 26.334 h -3.906 V 282 h 11.676 v -1.302 h -3.948 v -26.334 l 1.932,0.084 c 2.73,0.126 4.662,0.756 5.754,1.89 1.092,1.134 1.722,2.856 1.89,5.25 h 1.26 z m 45.9379,14.616 c 0,-4.662 -1.134,-8.4 -3.444,-11.172 -2.268,-2.814 -5.376,-4.2 -9.282,-4.2 -3.654,0 -6.678,1.344 -9.072,4.074 -2.478,2.856 -3.738,6.552 -3.78,11.046 -0.042,4.2 1.176,7.77 3.696,10.752 2.562,2.94 5.586,4.41 9.156,4.41 3.654,0 6.678,-1.428 9.072,-4.326 2.436,-2.898 3.654,-6.426 3.654,-10.584 z m -4.662,-0.084 c 0,4.032 -0.63,7.224 -1.932,9.618 -1.386,2.604 -3.402,3.906 -6.006,3.906 -5.544,0 -8.316,-4.578 -8.316,-13.692 0,-4.368 0.546,-7.686 1.68,-9.912 1.344,-2.604 3.528,-3.906 6.51,-3.906 2.814,0 4.914,1.386 6.3,4.116 1.176,2.352 1.764,5.628 1.764,9.87 z"
     id="text9"
     style="font-size:42px;font-family:'GFS Didot';letter-spacing:17;text-anchor:middle;fill:#202020"
     aria-label="CHRISTOPHER DICRISTO" />
</svg>
